<mxfile host="app.diagrams.net" agent="Mozilla/5.0 (Windows NT 10.0; Win64; x64) AppleWebKit/537.36 (KHTML, like Gecko) Chrome/133.0.0.0 Safari/537.36" version="26.0.16">
  <diagram name="Page-1" id="koAt_1DJ4aizDEp0hSSp">
    <mxGraphModel dx="1674" dy="738" grid="1" gridSize="10" guides="1" tooltips="1" connect="1" arrows="1" fold="1" page="1" pageScale="1" pageWidth="827" pageHeight="1169" math="0" shadow="0">
      <root>
        <mxCell id="0" />
        <mxCell id="1" parent="0" />
        <mxCell id="gMn1Iu3mgwIx1v5ScUqv-10" style="edgeStyle=orthogonalEdgeStyle;rounded=0;orthogonalLoop=1;jettySize=auto;html=1;exitX=0.5;exitY=1;exitDx=0;exitDy=0;exitPerimeter=0;" parent="1" source="gMn1Iu3mgwIx1v5ScUqv-1" target="gMn1Iu3mgwIx1v5ScUqv-6" edge="1">
          <mxGeometry relative="1" as="geometry" />
        </mxCell>
        <mxCell id="gMn1Iu3mgwIx1v5ScUqv-14" style="edgeStyle=orthogonalEdgeStyle;rounded=0;orthogonalLoop=1;jettySize=auto;html=1;exitX=1;exitY=0.5;exitDx=0;exitDy=0;exitPerimeter=0;" parent="1" source="gMn1Iu3mgwIx1v5ScUqv-1" edge="1">
          <mxGeometry relative="1" as="geometry">
            <mxPoint x="570" y="30" as="targetPoint" />
            <Array as="points">
              <mxPoint x="330" y="30" />
            </Array>
          </mxGeometry>
        </mxCell>
        <mxCell id="gMn1Iu3mgwIx1v5ScUqv-1" value="" style="shape=cylinder3;whiteSpace=wrap;html=1;boundedLbl=1;backgroundOutline=1;size=15;rotation=-90;" parent="1" vertex="1">
          <mxGeometry x="300" y="130" width="60" height="80" as="geometry" />
        </mxCell>
        <mxCell id="gMn1Iu3mgwIx1v5ScUqv-5" value="N2 Source&lt;div&gt;(Max of 7bar)&lt;/div&gt;" style="rounded=0;whiteSpace=wrap;html=1;" parent="1" vertex="1">
          <mxGeometry x="20" y="140" width="120" height="60" as="geometry" />
        </mxCell>
        <mxCell id="gMn1Iu3mgwIx1v5ScUqv-6" value="&lt;div&gt;&lt;br&gt;&lt;/div&gt;&lt;div&gt;&lt;br&gt;&lt;/div&gt;&lt;div&gt;&lt;br&gt;&lt;/div&gt;&lt;div&gt;&lt;br&gt;&lt;/div&gt;&lt;div&gt;Nozzle&lt;/div&gt;&lt;div&gt;&lt;br&gt;&lt;/div&gt;" style="triangle;whiteSpace=wrap;html=1;" parent="1" vertex="1">
          <mxGeometry x="630" y="155" width="170" height="30" as="geometry" />
        </mxCell>
        <mxCell id="gMn1Iu3mgwIx1v5ScUqv-11" style="edgeStyle=orthogonalEdgeStyle;rounded=0;orthogonalLoop=1;jettySize=auto;html=1;exitX=1;exitY=0.5;exitDx=0;exitDy=0;" parent="1" source="gMn1Iu3mgwIx1v5ScUqv-8" edge="1">
          <mxGeometry relative="1" as="geometry">
            <mxPoint x="629.9999999999998" y="170" as="targetPoint" />
            <Array as="points">
              <mxPoint x="580" y="365" />
              <mxPoint x="580" y="170" />
            </Array>
          </mxGeometry>
        </mxCell>
        <mxCell id="gMn1Iu3mgwIx1v5ScUqv-8" value="Rest of device" style="rounded=0;whiteSpace=wrap;html=1;" parent="1" vertex="1">
          <mxGeometry x="150" y="310" width="370" height="110" as="geometry" />
        </mxCell>
        <mxCell id="gMn1Iu3mgwIx1v5ScUqv-9" style="edgeStyle=orthogonalEdgeStyle;rounded=0;orthogonalLoop=1;jettySize=auto;html=1;exitX=1;exitY=0.5;exitDx=0;exitDy=0;entryX=0.5;entryY=0;entryDx=0;entryDy=0;entryPerimeter=0;" parent="1" source="gMn1Iu3mgwIx1v5ScUqv-5" target="gMn1Iu3mgwIx1v5ScUqv-1" edge="1">
          <mxGeometry relative="1" as="geometry" />
        </mxCell>
        <mxCell id="gMn1Iu3mgwIx1v5ScUqv-12" value="EReg" style="shape=hexagon;perimeter=hexagonPerimeter2;whiteSpace=wrap;html=1;fixedSize=1;" parent="1" vertex="1">
          <mxGeometry x="80" y="10" width="60" height="30" as="geometry" />
        </mxCell>
        <mxCell id="gMn1Iu3mgwIx1v5ScUqv-13" style="edgeStyle=orthogonalEdgeStyle;rounded=0;orthogonalLoop=1;jettySize=auto;html=1;exitX=0.75;exitY=1;exitDx=0;exitDy=0;entryX=0;entryY=0.5;entryDx=0;entryDy=0;" parent="1" source="gMn1Iu3mgwIx1v5ScUqv-5" target="gMn1Iu3mgwIx1v5ScUqv-8" edge="1">
          <mxGeometry relative="1" as="geometry">
            <Array as="points">
              <mxPoint x="110" y="365" />
            </Array>
          </mxGeometry>
        </mxCell>
        <mxCell id="gMn1Iu3mgwIx1v5ScUqv-16" value="Solenoid" style="shape=parallelogram;perimeter=parallelogramPerimeter;whiteSpace=wrap;html=1;fixedSize=1;" parent="1" vertex="1">
          <mxGeometry x="70" y="62.5" width="80" height="30" as="geometry" />
        </mxCell>
        <mxCell id="gMn1Iu3mgwIx1v5ScUqv-17" value="Solenoid" style="shape=parallelogram;perimeter=parallelogramPerimeter;whiteSpace=wrap;html=1;fixedSize=1;" parent="1" vertex="1">
          <mxGeometry x="460" y="15" width="80" height="30" as="geometry" />
        </mxCell>
        <mxCell id="gMn1Iu3mgwIx1v5ScUqv-18" value="Particle Filter" style="shape=document;whiteSpace=wrap;html=1;boundedLbl=1;" parent="1" vertex="1">
          <mxGeometry x="305" y="45" width="50" height="40" as="geometry" />
        </mxCell>
        <mxCell id="gMn1Iu3mgwIx1v5ScUqv-21" value="EReg" style="shape=hexagon;perimeter=hexagonPerimeter2;whiteSpace=wrap;html=1;fixedSize=1;" parent="1" vertex="1">
          <mxGeometry x="150" y="155" width="60" height="30" as="geometry" />
        </mxCell>
        <mxCell id="gMn1Iu3mgwIx1v5ScUqv-22" value="EReg" style="shape=hexagon;perimeter=hexagonPerimeter2;whiteSpace=wrap;html=1;fixedSize=1;" parent="1" vertex="1">
          <mxGeometry x="510" y="155" width="60" height="30" as="geometry" />
        </mxCell>
        <mxCell id="gMn1Iu3mgwIx1v5ScUqv-24" value="Particle Filter" style="shape=document;whiteSpace=wrap;html=1;boundedLbl=1;" parent="1" vertex="1">
          <mxGeometry x="10" y="5" width="50" height="40" as="geometry" />
        </mxCell>
        <mxCell id="gMn1Iu3mgwIx1v5ScUqv-25" value="Particle Filter" style="shape=document;whiteSpace=wrap;html=1;boundedLbl=1;" parent="1" vertex="1">
          <mxGeometry x="220" y="150" width="50" height="40" as="geometry" />
        </mxCell>
        <mxCell id="gMn1Iu3mgwIx1v5ScUqv-26" value="Choke point" style="shape=tape;whiteSpace=wrap;html=1;size=0.2222222222222222;" parent="1" vertex="1">
          <mxGeometry x="15" y="50" width="40" height="55" as="geometry" />
        </mxCell>
        <mxCell id="gMn1Iu3mgwIx1v5ScUqv-31" value="Choke point" style="shape=tape;whiteSpace=wrap;html=1;size=0.2222222222222222;" parent="1" vertex="1">
          <mxGeometry x="450" y="140" width="40" height="55" as="geometry" />
        </mxCell>
        <mxCell id="gMn1Iu3mgwIx1v5ScUqv-35" value="Ball&amp;nbsp;&lt;div&gt;Valve&lt;/div&gt;" style="shape=trapezoid;perimeter=trapezoidPerimeter;whiteSpace=wrap;html=1;fixedSize=1;" parent="1" vertex="1">
          <mxGeometry x="150" y="5" width="60" height="40" as="geometry" />
        </mxCell>
        <mxCell id="gMn1Iu3mgwIx1v5ScUqv-36" value="Ball&amp;nbsp;&lt;div&gt;Valve&lt;/div&gt;" style="shape=trapezoid;perimeter=trapezoidPerimeter;whiteSpace=wrap;html=1;fixedSize=1;" parent="1" vertex="1">
          <mxGeometry x="380" y="150" width="60" height="40" as="geometry" />
        </mxCell>
        <mxCell id="0Xus20Z5ZAyfjVPvp_kh-1" value="PT" style="rhombus;whiteSpace=wrap;html=1;" parent="1" vertex="1">
          <mxGeometry x="390" y="105" width="35" height="35" as="geometry" />
        </mxCell>
        <mxCell id="0Xus20Z5ZAyfjVPvp_kh-2" style="edgeStyle=orthogonalEdgeStyle;rounded=0;orthogonalLoop=1;jettySize=auto;html=1;exitX=0.5;exitY=1;exitDx=0;exitDy=0;exitPerimeter=0;" parent="1" source="0Xus20Z5ZAyfjVPvp_kh-4" target="0Xus20Z5ZAyfjVPvp_kh-6" edge="1">
          <mxGeometry relative="1" as="geometry" />
        </mxCell>
        <mxCell id="0Xus20Z5ZAyfjVPvp_kh-4" value="" style="shape=cylinder3;whiteSpace=wrap;html=1;boundedLbl=1;backgroundOutline=1;size=15;rotation=-90;" parent="1" vertex="1">
          <mxGeometry x="302.5" y="565" width="60" height="80" as="geometry" />
        </mxCell>
        <mxCell id="0Xus20Z5ZAyfjVPvp_kh-5" value="&lt;div&gt;Shop air (6bar)&lt;/div&gt;" style="rounded=0;whiteSpace=wrap;html=1;" parent="1" vertex="1">
          <mxGeometry x="22.5" y="575" width="120" height="60" as="geometry" />
        </mxCell>
        <mxCell id="0Xus20Z5ZAyfjVPvp_kh-6" value="Container" style="triangle;whiteSpace=wrap;html=1;" parent="1" vertex="1">
          <mxGeometry x="630" y="510" width="70" height="190" as="geometry" />
        </mxCell>
        <mxCell id="0Xus20Z5ZAyfjVPvp_kh-9" style="edgeStyle=orthogonalEdgeStyle;rounded=0;orthogonalLoop=1;jettySize=auto;html=1;exitX=1;exitY=0.5;exitDx=0;exitDy=0;entryX=0.5;entryY=0;entryDx=0;entryDy=0;entryPerimeter=0;" parent="1" source="0Xus20Z5ZAyfjVPvp_kh-5" target="0Xus20Z5ZAyfjVPvp_kh-4" edge="1">
          <mxGeometry relative="1" as="geometry" />
        </mxCell>
        <mxCell id="0Xus20Z5ZAyfjVPvp_kh-10" value="Reg" style="shape=hexagon;perimeter=hexagonPerimeter2;whiteSpace=wrap;html=1;fixedSize=1;" parent="1" vertex="1">
          <mxGeometry x="82.5" y="445" width="60" height="30" as="geometry" />
        </mxCell>
        <mxCell id="0Xus20Z5ZAyfjVPvp_kh-17" value="Particle Filter" style="shape=document;whiteSpace=wrap;html=1;boundedLbl=1;" parent="1" vertex="1">
          <mxGeometry x="12.5" y="440" width="50" height="40" as="geometry" />
        </mxCell>
        <mxCell id="0Xus20Z5ZAyfjVPvp_kh-19" value="Choke point" style="shape=tape;whiteSpace=wrap;html=1;size=0.2222222222222222;" parent="1" vertex="1">
          <mxGeometry x="17.5" y="485" width="40" height="55" as="geometry" />
        </mxCell>
        <mxCell id="0Xus20Z5ZAyfjVPvp_kh-20" value="Choke point" style="shape=tape;whiteSpace=wrap;html=1;size=0.2222222222222222;" parent="1" vertex="1">
          <mxGeometry x="452.5" y="575" width="40" height="55" as="geometry" />
        </mxCell>
        <mxCell id="0Xus20Z5ZAyfjVPvp_kh-21" value="Ball&amp;nbsp;&lt;div&gt;Valve&lt;/div&gt;" style="shape=trapezoid;perimeter=trapezoidPerimeter;whiteSpace=wrap;html=1;fixedSize=1;" parent="1" vertex="1">
          <mxGeometry x="152.5" y="440" width="60" height="40" as="geometry" />
        </mxCell>
        <mxCell id="0Xus20Z5ZAyfjVPvp_kh-24" style="edgeStyle=none;curved=1;rounded=0;orthogonalLoop=1;jettySize=auto;html=1;fontSize=12;startSize=8;endSize=8;" parent="1" source="0Xus20Z5ZAyfjVPvp_kh-23" edge="1">
          <mxGeometry relative="1" as="geometry">
            <mxPoint x="410" y="610" as="targetPoint" />
          </mxGeometry>
        </mxCell>
        <mxCell id="0Xus20Z5ZAyfjVPvp_kh-23" value="PT" style="rhombus;whiteSpace=wrap;html=1;" parent="1" vertex="1">
          <mxGeometry x="392.5" y="540" width="35" height="30" as="geometry" />
        </mxCell>
        <mxCell id="0Xus20Z5ZAyfjVPvp_kh-25" style="edgeStyle=none;curved=1;rounded=0;orthogonalLoop=1;jettySize=auto;html=1;fontSize=12;startSize=8;endSize=8;" parent="1" source="0Xus20Z5ZAyfjVPvp_kh-26" edge="1">
          <mxGeometry relative="1" as="geometry">
            <mxPoint x="237.5" y="610" as="targetPoint" />
          </mxGeometry>
        </mxCell>
        <mxCell id="0Xus20Z5ZAyfjVPvp_kh-26" value="PT" style="rhombus;whiteSpace=wrap;html=1;" parent="1" vertex="1">
          <mxGeometry x="220" y="540" width="35" height="30" as="geometry" />
        </mxCell>
        <mxCell id="0Xus20Z5ZAyfjVPvp_kh-27" style="edgeStyle=none;curved=1;rounded=0;orthogonalLoop=1;jettySize=auto;html=1;fontSize=12;startSize=8;endSize=8;" parent="1" source="0Xus20Z5ZAyfjVPvp_kh-28" edge="1">
          <mxGeometry relative="1" as="geometry">
            <mxPoint x="527.5" y="610" as="targetPoint" />
          </mxGeometry>
        </mxCell>
        <mxCell id="0Xus20Z5ZAyfjVPvp_kh-28" value="PT" style="rhombus;whiteSpace=wrap;html=1;" parent="1" vertex="1">
          <mxGeometry x="510" y="540" width="35" height="30" as="geometry" />
        </mxCell>
      </root>
    </mxGraphModel>
  </diagram>
</mxfile>
